<svg width="31" height="48" viewBox="0 0 31 48" fill="none" xmlns="http://www.w3.org/2000/svg">
<path d="M15.5 9C15.8978 9 16.2794 9.15804 16.5607 9.43934C16.842 9.72064 17 10.1022 17 10.5V16.5C17 16.8978 16.842 17.2794 16.5607 17.5607C16.2794 17.842 15.8978 18 15.5 18C15.1022 18 14.7206 17.842 14.4393 17.5607C14.158 17.2794 14 16.8978 14 16.5V10.5C14 10.1022 14.158 9.72064 14.4393 9.43934C14.7206 9.15804 15.1022 9 15.5 9ZM27.5 33C27.5 36.1826 26.2357 39.2348 23.9853 41.4853C21.7348 43.7357 18.6826 45 15.5 45C12.3174 45 9.26515 43.7357 7.01472 41.4853C4.76428 39.2348 3.5 36.1826 3.5 33V15C3.5 11.8174 4.76428 8.76515 7.01472 6.51472C9.26515 4.26428 12.3174 3 15.5 3C18.6826 3 21.7348 4.26428 23.9853 6.51472C26.2357 8.76515 27.5 11.8174 27.5 15V33ZM15.5 0C11.5218 0 7.70644 1.58035 4.8934 4.3934C2.08035 7.20644 0.5 11.0218 0.5 15V33C0.5 36.9782 2.08035 40.7936 4.8934 43.6066C7.70644 46.4196 11.5218 48 15.5 48C19.4782 48 23.2936 46.4196 26.1066 43.6066C28.9196 40.7936 30.5 36.9782 30.5 33V15C30.5 11.0218 28.9196 7.20644 26.1066 4.3934C23.2936 1.58035 19.4782 0 15.5 0V0Z" fill="white"/>
</svg>
