<svg width="609" height="401" viewBox="0 0 609 401" fill="none" xmlns="http://www.w3.org/2000/svg">
<g opacity="0.04" clip-path="url(#clip0_604_1164)">
<path d="M-445.534 12.9063C-465.649 19.1618 -486.3 25.1904 -507.736 30.1343V27.8641C-489.092 23.513 -471 18.3294 -453.309 12.9063H-445.534ZM-288.189 12.9063H-301.917C-344.806 20.2969 -383.248 32.5936 -420.887 44.6382C-448.778 53.5675 -477.538 62.7743 -507.736 69.837V72.1072C-476.752 64.9435 -447.39 55.5476 -418.914 46.4291C-377.847 33.2873 -335.811 19.8429 -288.189 12.9063ZM367.727 58.6249C308.869 77.4673 248.021 96.9529 171.556 96.9529C95.0908 96.9529 34.2429 77.4673 -24.6152 58.6249C-83.9081 39.6438 -145.224 20.0194 -222.743 20.0194C-300.262 20.0194 -361.578 39.6564 -420.871 58.6375C-448.778 67.5668 -477.538 76.761 -507.736 83.8238V86.0939C-476.752 78.9303 -447.39 69.5343 -418.914 60.4158C-360.056 41.586 -299.208 22.1004 -222.743 22.1004C-146.278 22.1004 -85.4296 41.586 -26.5716 60.4284C32.7213 79.4096 94.0374 99.0465 171.573 99.0465C249.092 99.0465 310.408 79.4096 369.7 60.4284C415.533 45.748 462.569 30.6892 517.264 24.749V22.6049C461.666 28.5578 414.078 43.7931 367.727 58.6249ZM-401.508 12.9063H-409.132C-413.062 14.1548 -416.975 15.416 -420.887 16.6646C-448.778 25.594 -477.538 34.7881 -507.736 41.8635V44.1337C-476.752 36.97 -447.39 27.5741 -418.914 18.4555C-413.129 16.6016 -407.326 14.7476 -401.508 12.9063ZM-354.371 12.9063H-362.915C-382.747 18.4429 -401.909 24.585 -420.871 30.6514C-448.778 39.5807 -477.538 48.7875 -507.736 55.8503V58.1204C-476.752 50.9568 -447.39 41.5608 -418.914 32.4423C-397.862 25.7075 -376.543 18.8844 -354.371 12.9063ZM171.556 110.94C95.0908 110.94 34.2429 91.4541 -24.6152 72.6117C-83.9081 53.6305 -145.224 33.9936 -222.76 33.9936C-300.278 33.9936 -361.594 53.6305 -420.887 72.6117C-448.778 81.5536 -477.538 90.7478 -507.736 97.8231V100.093C-476.752 92.9171 -447.39 83.5337 -418.914 74.4152C-360.073 55.5728 -299.208 36.0872 -222.743 36.0872C-146.278 36.0872 -85.4296 55.5728 -26.5716 74.4152C32.7213 93.3963 94.0374 113.033 171.573 113.033C249.092 113.033 310.408 93.3963 369.7 74.4152C415.533 59.7474 462.586 44.676 517.264 38.7357V36.6043C461.666 42.5446 414.078 57.7799 367.727 72.6243C308.869 91.4667 248.021 110.94 171.556 110.94ZM171.556 124.939C95.0908 124.939 34.2429 105.453 -24.6152 86.611C-83.9081 67.6299 -145.224 47.993 -222.76 47.993C-300.278 47.993 -361.594 67.6299 -420.887 86.611C-448.778 95.5404 -477.538 104.747 -507.736 111.81V114.08C-476.752 106.916 -447.39 97.5205 -418.914 88.4019C-360.073 69.5596 -299.208 50.0739 -222.743 50.0739C-146.278 50.0739 -85.4296 69.5596 -26.5716 88.4019C32.7213 107.383 94.0374 127.02 171.573 127.02C249.092 127.02 310.408 107.383 369.7 88.4019C415.533 73.7341 462.586 58.6627 517.264 52.7225V50.591C461.666 56.5313 414.078 71.7667 367.727 86.611C308.869 105.453 248.021 124.939 171.556 124.939ZM171.556 180.899C95.0908 180.899 34.2429 161.413 -24.6152 142.571C-83.9081 123.59 -145.224 103.953 -222.76 103.953C-300.278 103.953 -361.594 123.59 -420.887 142.571C-448.778 151.5 -477.538 160.694 -507.736 167.77V170.04C-476.752 162.876 -447.39 153.48 -418.914 144.362C-360.073 125.519 -299.208 106.034 -222.743 106.034C-146.278 106.034 -85.4296 125.519 -26.5716 144.362C32.7213 163.343 94.0374 182.98 171.573 182.98C249.092 182.98 310.408 163.343 369.7 144.362C415.533 129.694 462.569 114.635 517.264 108.682V106.551C461.666 112.491 414.078 127.726 367.727 142.571C308.869 161.413 248.021 180.899 171.556 180.899ZM171.556 194.885C95.0908 194.885 34.2429 175.4 -24.6152 156.557C-83.9081 137.576 -145.224 117.939 -222.76 117.939C-300.278 117.939 -361.594 137.576 -420.887 156.557C-448.778 165.487 -477.538 174.694 -507.736 181.756V184.026C-476.752 176.863 -447.39 167.467 -418.914 158.348C-360.073 139.506 -299.208 120.02 -222.743 120.02C-146.278 120.02 -85.4296 139.506 -26.5716 158.348C32.7213 177.329 94.0374 196.966 171.573 196.966C249.092 196.966 310.408 177.329 369.7 158.348C415.533 143.681 462.586 128.609 517.264 122.669V120.537C461.666 126.478 414.078 141.713 367.727 156.557C308.869 175.4 248.021 194.885 171.556 194.885ZM171.556 166.899C95.0908 166.899 34.2429 147.414 -24.6152 128.571C-83.9081 109.59 -145.224 89.9658 -222.743 89.9658C-300.262 89.9658 -361.578 109.603 -420.871 128.584C-448.778 137.513 -477.538 146.707 -507.736 153.783V156.053C-476.752 148.889 -447.39 139.493 -418.914 130.375C-360.056 111.532 -299.208 92.0468 -222.76 92.0468C-146.294 92.0468 -85.4464 111.532 -26.5883 130.375C32.7045 149.356 94.0206 168.993 171.556 168.993C249.075 168.993 310.391 149.356 369.684 130.375C415.533 115.694 462.569 100.636 517.264 94.6954V92.5639C461.666 98.5042 414.078 113.74 367.727 128.584C308.869 147.426 248.021 166.899 171.556 166.899ZM171.556 138.926C95.0908 138.926 34.2429 119.44 -24.6152 100.598C-83.9081 81.6167 -145.224 61.9797 -222.76 61.9797C-300.278 61.9797 -361.594 81.6167 -420.887 100.598C-448.778 109.527 -477.538 118.734 -507.736 125.797V128.067C-476.752 120.903 -447.39 111.507 -418.914 102.389C-360.073 83.5463 -299.208 64.0607 -222.743 64.0607C-146.278 64.0607 -85.4296 83.5463 -26.5716 102.389C32.7213 121.37 94.0374 141.007 171.573 141.007C249.092 141.007 310.408 121.37 369.7 102.389C415.533 87.7209 462.586 72.6495 517.264 66.7092V64.5778C461.666 70.5181 414.078 85.7534 367.727 100.598C308.869 119.44 248.021 138.926 171.556 138.926ZM171.556 152.913C95.0908 152.913 34.2429 133.427 -24.6152 114.585C-83.9081 95.6034 -145.224 75.9665 -222.743 75.9665C-300.262 75.9665 -361.578 95.6034 -420.871 114.585C-448.778 123.526 -477.538 132.721 -507.736 139.783V142.054C-476.752 134.89 -447.39 125.494 -418.914 116.375C-360.056 97.5331 -299.208 78.0475 -222.743 78.0475C-146.278 78.0475 -85.4296 97.5331 -26.5716 116.375C32.7213 135.357 94.0374 154.994 171.573 154.994C249.092 154.994 310.408 135.357 369.7 116.375C415.533 101.708 462.586 86.6363 517.264 80.696V78.5646C461.666 84.5048 414.078 99.7402 367.727 114.585C308.869 133.427 248.021 152.913 171.556 152.913ZM171.556 85.0471C249.075 85.0471 310.391 65.4102 369.684 46.4291C410.751 33.2873 452.787 19.8429 500.409 12.9063H486.681C443.791 20.2969 405.35 32.5936 367.711 44.6382C308.853 63.4805 248.005 82.9661 171.539 82.9661C95.074 82.9661 34.2261 63.4805 -24.6319 44.6382C-62.2543 32.5936 -100.713 20.2843 -143.602 12.9062H-157.33C-109.709 19.8429 -67.6719 33.2873 -26.605 46.4417C32.7213 65.4228 94.0373 85.0471 171.556 85.0471ZM-503.64 12.9063C-505.011 13.2342 -506.365 13.5621 -507.736 13.8774V16.1475C-503.255 15.1134 -498.791 14.0287 -494.376 12.9063H-503.64ZM237.119 413.906H250.831C293.67 406.516 332.095 394.231 369.7 382.187C415.533 367.519 462.586 352.448 517.264 346.507V344.376C461.666 350.316 414.078 365.552 367.727 380.396C326.711 393.525 284.707 406.957 237.119 413.906ZM350.354 413.906H357.996C361.925 412.658 365.838 411.409 369.7 410.173C415.533 395.493 462.586 380.434 517.264 374.494V372.349C461.666 378.29 414.078 393.525 367.727 408.369C362.009 410.198 356.19 412.052 350.354 413.906ZM402.189 413.906C437.989 402.934 475.394 393.033 517.264 388.48V386.349C472.251 391.167 432.505 402.063 394.397 413.919H402.189V413.906ZM452.436 413.906C472.234 409.139 493.787 404.989 517.264 402.454V400.323C490.092 403.211 465.479 408.231 443.173 413.906H452.436ZM171.556 208.872C95.0908 208.872 34.2429 189.387 -24.6152 170.544C-83.9081 151.563 -145.224 131.926 -222.76 131.926C-300.278 131.926 -361.594 151.563 -420.887 170.544C-448.778 179.486 -477.538 188.68 -507.736 195.743V198.013C-476.752 190.85 -447.39 181.454 -418.914 172.335C-360.073 153.493 -299.208 134.007 -222.743 134.007C-146.278 134.007 -85.4296 153.493 -26.5716 172.335C32.7213 191.316 94.0374 210.953 171.573 210.953C249.092 210.953 310.408 191.316 369.7 172.335C415.533 157.667 462.586 142.596 517.264 136.656V134.524C461.666 140.464 414.078 155.7 367.727 170.544C308.869 189.387 248.021 208.872 171.556 208.872ZM303.301 413.906H311.812C331.627 408.357 350.856 402.215 369.7 396.174C415.533 381.506 462.586 366.447 517.264 360.494V358.363C461.666 364.303 414.078 379.538 367.727 394.383C346.809 401.08 325.423 407.915 303.301 413.906ZM216.168 12.9063H181.087C177.927 12.9693 174.766 13.0198 171.556 13.0198C168.346 13.0198 165.185 12.9693 162.025 12.9063H126.928C141.224 14.3062 156.056 15.1007 171.539 15.1007C187.023 15.1007 201.871 14.3062 216.168 12.9063ZM171.556 57.0736C249.075 57.0736 310.391 37.4367 369.684 18.4555C375.469 16.6016 381.255 14.7476 387.09 12.9063H379.466C375.536 14.1548 371.623 15.416 367.711 16.6646C308.853 35.507 248.005 54.9926 171.539 54.9926C95.074 54.9926 34.2261 35.507 -24.6319 16.6646C-28.5446 15.416 -32.4574 14.1548 -36.3868 12.9063H-44.0117C-38.176 14.7476 -32.3738 16.6016 -26.605 18.4555C32.7213 37.4367 94.0373 57.0736 171.556 57.0736ZM171.556 71.0604C249.075 71.0604 310.391 51.4234 369.684 32.4423C390.735 25.7075 412.038 18.8844 434.227 12.9063H425.682C405.851 18.4429 386.672 24.585 367.711 30.6514C308.853 49.4938 248.005 68.9794 171.539 68.9794C95.074 68.9794 34.2261 49.4938 -24.6319 30.6514C-43.5768 24.585 -62.7392 18.4429 -82.5871 12.9063H-91.1315C-68.9427 18.8844 -47.6401 25.7075 -26.5883 32.4423C32.7213 51.436 94.0373 71.0604 171.556 71.0604ZM343.081 12.9063H335.305C286.212 27.965 234.109 40.9933 171.573 40.9933C109.036 40.9933 56.9333 27.9524 7.84033 12.9063H0.0650635C51.3318 28.8479 105.575 43.0869 171.589 43.0869C237.554 43.0869 291.814 28.8479 343.081 12.9063ZM294.155 12.9063H284.841C250.245 21.2176 213.225 27.0065 171.573 27.0065C129.904 27.0065 92.8835 21.2176 58.2877 12.9063H48.9573C86.1617 22.3274 126.058 29.1001 171.556 29.1001C217.054 29.1001 256.967 22.3274 294.155 12.9063ZM-345.442 413.906H-336.178C-303.422 406.011 -265.833 399.819 -222.76 399.819C-179.686 399.819 -142.097 406.011 -109.341 413.906H-100.077C-135.008 405.027 -175.606 397.738 -222.776 397.738C-269.913 397.738 -310.512 405.027 -345.442 413.906ZM-222.743 369.751C-300.262 369.751 -361.578 389.388 -420.887 408.369C-426.606 410.198 -432.425 412.052 -438.26 413.906H-430.619C-426.689 412.658 -422.777 411.409 -418.914 410.173C-360.056 391.331 -299.208 371.845 -222.743 371.845C-146.278 371.845 -85.4296 391.331 -26.5716 410.173C-22.709 411.409 -18.7963 412.658 -14.8668 413.906H-7.22534C-13.061 412.052 -18.8799 410.198 -24.5985 408.369C-83.908 389.388 -145.224 369.751 -222.743 369.751ZM171.556 390.738C95.0908 390.738 34.2429 371.252 -24.6152 352.41C-83.9081 333.429 -145.224 313.792 -222.76 313.792C-300.278 313.792 -361.594 333.429 -420.887 352.41C-448.778 361.339 -477.538 370.546 -507.736 377.609V379.879C-476.752 372.715 -447.39 363.319 -418.914 354.201C-360.073 335.358 -299.208 315.873 -222.76 315.873C-146.294 315.873 -85.4464 335.358 -26.5883 354.201C32.7045 373.182 94.0206 392.819 171.556 392.819C249.075 392.819 310.391 373.182 369.684 354.201C415.516 339.533 462.569 324.462 517.247 318.521V316.39C461.649 322.33 414.061 337.565 367.711 352.41C308.869 371.252 248.021 390.738 171.556 390.738ZM-394.2 413.906H-386.425C-337.349 398.86 -285.263 385.832 -222.743 385.832C-160.223 385.832 -108.154 398.86 -59.0606 413.906H-51.2852C-102.535 397.965 -156.762 383.751 -222.743 383.751C-288.724 383.738 -342.967 397.965 -394.2 413.906ZM-222.743 341.778C-300.262 341.778 -361.578 361.415 -420.871 380.396C-448.778 389.325 -477.538 398.519 -507.736 405.595V407.865C-476.752 400.701 -447.39 391.305 -418.914 382.187C-360.073 363.344 -299.208 343.859 -222.743 343.859C-146.278 343.859 -85.4296 363.344 -26.5716 382.187C11.0341 394.231 49.4423 406.516 92.2983 413.906H106.01C58.4382 406.97 16.4349 393.525 -24.5985 380.396C-83.908 361.402 -145.224 341.778 -222.743 341.778ZM171.556 404.725C95.0908 404.725 34.2429 385.239 -24.6152 366.397C-83.9081 347.415 -145.224 327.779 -222.76 327.779C-300.278 327.779 -361.594 347.415 -420.887 366.397C-448.778 375.339 -477.538 384.533 -507.736 391.595V393.866C-476.752 386.702 -447.39 377.306 -418.914 368.188C-360.073 349.345 -299.208 329.86 -222.743 329.86C-146.278 329.86 -85.4296 349.345 -26.5716 368.188C32.7213 387.169 94.0374 406.806 171.573 406.806C249.092 406.806 310.408 387.169 369.7 368.188C415.533 353.52 462.586 338.448 517.264 332.508V330.377C461.666 336.317 414.078 351.552 367.727 366.397C308.869 385.239 248.021 404.725 171.556 404.725ZM-267.338 413.906H-231.605C-228.662 413.843 -225.702 413.805 -222.743 413.805C-219.783 413.805 -216.84 413.843 -213.881 413.906H-178.148C-193.046 412.456 -207.844 411.724 -222.743 411.724C-237.625 411.724 -252.439 412.443 -267.338 413.906ZM-222.743 355.765C-300.262 355.765 -361.578 375.402 -420.871 394.383C-441.789 401.08 -463.175 407.915 -485.297 413.906H-476.786C-456.971 408.357 -437.742 402.202 -418.897 396.174C-360.056 377.331 -299.191 357.846 -222.743 357.846C-146.278 357.846 -85.4296 377.331 -26.5716 396.174C-7.72696 402.202 11.4855 408.357 31.3167 413.906H39.8277C17.7057 407.915 -3.68045 401.08 -24.5985 394.383C-83.908 375.402 -145.224 355.765 -222.743 355.765ZM171.556 306.805C95.0908 306.805 34.2429 287.319 -24.6152 268.477C-83.9081 249.496 -145.224 229.859 -222.76 229.859C-300.278 229.859 -361.594 249.496 -420.887 268.477C-448.778 277.406 -477.538 286.6 -507.736 293.676V295.946C-476.752 288.782 -447.39 279.386 -418.914 270.268C-360.073 251.425 -299.208 231.94 -222.743 231.94C-146.278 231.94 -85.4296 251.425 -26.5716 270.268C32.7213 289.249 94.0374 308.886 171.573 308.886C249.092 308.886 310.408 289.249 369.7 270.268C415.533 255.6 462.586 240.528 517.264 234.588V232.457C461.666 238.397 414.078 253.632 367.727 268.477C308.869 287.319 248.021 306.805 171.556 306.805ZM171.556 264.832C95.0908 264.832 34.2429 245.346 -24.6152 226.504C-83.9081 207.523 -145.224 187.886 -222.76 187.886C-300.278 187.886 -361.594 207.523 -420.887 226.504C-448.778 235.433 -477.538 244.64 -507.736 251.703V253.973C-476.752 246.809 -447.39 237.413 -418.914 228.295C-360.073 209.452 -299.208 189.967 -222.743 189.967C-146.278 189.967 -85.4296 209.452 -26.5716 228.295C32.7213 247.276 94.0374 266.913 171.573 266.913C249.092 266.913 310.408 247.276 369.7 228.295C415.533 213.627 462.586 198.556 517.264 192.615V190.484C461.666 196.424 414.078 211.659 367.727 226.504C308.869 245.346 248.021 264.832 171.556 264.832ZM171.556 278.819C95.0908 278.819 34.2429 259.333 -24.6152 240.491C-83.9081 221.509 -145.224 201.872 -222.76 201.872C-300.278 201.872 -361.594 221.509 -420.887 240.491C-448.778 249.433 -477.538 258.627 -507.736 265.689V267.96C-476.752 260.796 -447.39 251.4 -418.914 242.281C-360.073 223.439 -299.208 203.953 -222.743 203.953C-146.278 203.953 -85.4296 223.439 -26.5716 242.281C32.7213 261.263 94.0374 280.9 171.573 280.9C249.092 280.9 310.408 261.263 369.7 242.281C415.533 227.601 462.586 212.542 517.264 206.602V204.471C461.666 210.411 414.078 225.646 367.727 240.491C308.869 259.333 248.021 278.819 171.556 278.819ZM171.556 376.751C95.0908 376.751 34.2429 357.266 -24.6152 338.423C-83.9081 319.442 -145.224 299.805 -222.76 299.805C-300.278 299.805 -361.594 319.442 -420.887 338.423C-448.778 347.352 -477.538 356.547 -507.736 363.622V365.892C-476.752 358.728 -447.39 349.332 -418.914 340.214C-360.073 321.372 -299.208 301.886 -222.743 301.886C-146.278 301.886 -85.4296 321.372 -26.5716 340.214C32.7213 359.195 94.0374 378.832 171.573 378.832C249.092 378.832 310.408 359.195 369.7 340.214C415.533 325.546 462.586 310.475 517.264 304.535V302.403C461.666 308.343 414.078 323.579 367.727 338.423C308.869 357.266 248.021 376.751 171.556 376.751ZM171.556 250.845C95.0908 250.845 34.2429 231.359 -24.6152 212.517C-83.9081 193.536 -145.224 173.899 -222.76 173.899C-300.278 173.899 -361.594 193.536 -420.887 212.517C-448.778 221.446 -477.538 230.653 -507.736 237.716V239.986C-476.752 232.822 -447.39 223.426 -418.914 214.308C-360.073 195.466 -299.208 175.98 -222.743 175.98C-146.278 175.98 -85.4296 195.466 -26.5716 214.308C32.7213 233.289 94.0374 252.926 171.573 252.926C249.092 252.926 310.408 233.289 369.7 214.308C415.533 199.64 462.586 184.569 517.264 178.628V176.497C461.666 182.437 414.078 197.673 367.727 212.517C308.869 231.359 248.021 250.845 171.556 250.845ZM171.556 236.858C95.0908 236.858 34.2429 217.373 -24.6152 198.53C-83.9081 179.549 -145.224 159.912 -222.76 159.912C-300.278 159.912 -361.594 179.549 -420.887 198.53C-448.778 207.46 -477.538 216.654 -507.736 223.729V225.999C-476.752 218.836 -447.39 209.44 -418.914 200.321C-360.073 181.479 -299.208 161.993 -222.743 161.993C-146.278 161.993 -85.4296 181.479 -26.5716 200.321C32.7213 219.302 94.0374 238.939 171.573 238.939C249.092 238.939 310.408 219.302 369.7 200.321C415.533 185.653 462.586 170.582 517.264 164.642V162.51C461.666 168.451 414.078 183.686 367.727 198.53C308.869 217.373 248.021 236.858 171.556 236.858ZM171.556 292.805C95.0908 292.805 34.2429 273.32 -24.6152 254.477C-83.9081 235.496 -145.224 215.859 -222.76 215.859C-300.278 215.859 -361.594 235.496 -420.887 254.477C-448.778 263.419 -477.538 272.613 -507.736 279.689V281.959C-476.752 274.795 -447.39 265.399 -418.914 256.281C-360.073 237.438 -299.208 217.953 -222.743 217.953C-146.278 217.953 -85.4296 237.438 -26.5716 256.281C32.7213 275.262 94.0374 294.899 171.573 294.899C249.092 294.899 310.408 275.262 369.7 256.281C415.533 241.613 462.586 226.542 517.264 220.601V218.47C461.666 224.41 414.078 239.646 367.727 254.49C308.869 273.332 248.021 292.805 171.556 292.805ZM171.556 348.765C95.0908 348.765 34.2429 329.279 -24.6152 310.437C-83.9081 291.456 -145.224 271.819 -222.76 271.819C-300.278 271.819 -361.594 291.456 -420.887 310.437C-448.778 319.379 -477.538 328.573 -507.736 335.636V337.906C-476.752 330.742 -447.39 321.346 -418.914 312.228C-360.073 293.385 -299.208 273.9 -222.743 273.9C-146.278 273.9 -85.4296 293.385 -26.5716 312.228C32.7213 331.209 94.0374 350.846 171.573 350.846C249.092 350.846 310.408 331.209 369.7 312.228C415.533 297.56 462.586 282.489 517.264 276.548V274.417C461.666 280.357 414.078 295.593 367.727 310.437C308.869 329.279 248.021 348.765 171.556 348.765ZM171.556 362.764C95.0908 362.764 34.2429 343.279 -24.6152 324.436C-83.9081 305.455 -145.224 285.818 -222.76 285.818C-300.278 285.818 -361.594 305.455 -420.887 324.436C-448.778 333.366 -477.538 342.56 -507.736 349.635V351.905C-476.752 344.742 -447.39 335.346 -418.914 326.227C-360.073 307.385 -299.208 287.899 -222.76 287.899C-146.294 287.899 -85.4464 307.385 -26.5883 326.227C32.7045 345.208 94.0206 364.845 171.556 364.845C249.075 364.845 310.391 345.208 369.684 326.227C415.516 311.559 462.569 296.488 517.247 290.548V288.416C461.649 294.357 414.061 309.592 367.711 324.436C308.869 343.279 248.021 362.764 171.556 362.764ZM171.556 320.791C95.0908 320.791 34.2429 301.306 -24.6152 282.463C-83.9081 263.482 -145.224 243.845 -222.76 243.845C-300.278 243.845 -361.594 263.482 -420.887 282.463C-448.778 291.393 -477.538 300.6 -507.736 307.662V309.932C-476.752 302.769 -447.39 293.373 -418.914 284.254C-360.073 265.412 -299.208 245.926 -222.743 245.926C-146.278 245.926 -85.4296 265.412 -26.5716 284.254C32.7213 303.235 94.0374 322.872 171.573 322.872C249.092 322.872 310.408 303.235 369.7 284.254C415.533 269.587 462.586 254.515 517.264 248.575V246.443C461.666 252.384 414.078 267.619 367.727 282.463C308.869 301.306 248.021 320.791 171.556 320.791ZM171.556 222.859C95.0908 222.859 34.2429 203.373 -24.6152 184.531C-83.9081 165.55 -145.224 145.913 -222.76 145.913C-300.278 145.913 -361.594 165.55 -420.887 184.531C-448.778 193.473 -477.538 202.667 -507.736 209.742V212.013C-476.752 204.849 -447.39 195.453 -418.914 186.334C-360.073 167.492 -299.208 148.006 -222.743 148.006C-146.278 148.006 -85.4296 167.492 -26.5716 186.334C32.7213 205.316 94.0374 224.953 171.573 224.953C249.092 224.953 310.408 205.316 369.7 186.334C415.533 171.667 462.586 156.595 517.264 150.655V148.524C461.666 154.464 414.078 169.699 367.727 184.544C308.869 203.373 248.021 222.859 171.556 222.859ZM171.556 334.778C95.0908 334.778 34.2429 315.293 -24.6152 296.45C-83.9081 277.469 -145.224 257.832 -222.76 257.832C-300.278 257.832 -361.594 277.456 -420.887 296.45C-448.778 305.392 -477.538 314.586 -507.736 321.649V323.919C-476.752 316.756 -447.39 307.36 -418.914 298.241C-360.073 279.399 -299.208 259.913 -222.76 259.913C-146.294 259.913 -85.4464 279.399 -26.5883 298.241C32.7045 317.222 94.0206 336.859 171.556 336.859C249.075 336.859 310.391 317.222 369.684 298.241C415.516 283.573 462.569 268.502 517.247 262.562V260.43C461.649 266.37 414.061 281.606 367.711 296.45C308.869 315.293 248.021 334.778 171.556 334.778Z" fill="#101010"/>
</g>
<defs>
<clipPath id="clip0_604_1164">
<rect width="1025" height="401" fill="white" transform="translate(-416)"/>
</clipPath>
</defs>
</svg>
